<?xml version="1.0" encoding="utf-8"?>
<!-- Generator: Adobe Illustrator 21.0.0, SVG Export Plug-In . SVG Version: 6.00 Build 0)  -->
<svg version="1.1" id="Capa_1" xmlns="http://www.w3.org/2000/svg" xmlns:xlink="http://www.w3.org/1999/xlink" x="0px" y="0px"
	 viewBox="0 0 489.4 489.4" style="enable-background:new 0 0 489.4 489.4;" xml:space="preserve">
<style type="text/css">
	.st0{fill:#8765AA;}
</style>
<circle class="st0" cx="61.5" cy="290.8" r="6.3"/>
<circle class="st0" cx="61.5" cy="306.8" r="6.3"/>
<circle class="st0" cx="77.5" cy="290.8" r="6.3"/>
<circle class="st0" cx="61.5" cy="275.1" r="6.3"/>
<circle class="st0" cx="77.5" cy="275.1" r="6.3"/>
<circle class="st0" cx="93.3" cy="211.1" r="6.3"/>
<circle class="st0" cx="109.3" cy="211.1" r="6.3"/>
<circle class="st0" cx="93.3" cy="195.3" r="6.3"/>
<circle class="st0" cx="109.3" cy="195.3" r="6.3"/>
<circle class="st0" cx="77.5" cy="306.8" r="6.3"/>
<circle class="st0" cx="77.5" cy="322.9" r="6.3"/>
<circle class="st0" cx="77.5" cy="338.9" r="6.3"/>
<circle class="st0" cx="61.5" cy="322.9" r="6.3"/>
<circle class="st0" cx="61.5" cy="338.9" r="6.3"/>
<circle class="st0" cx="61.5" cy="370.7" r="6.3"/>
<circle class="st0" cx="61.5" cy="386.6" r="6.3"/>
<circle class="st0" cx="77.5" cy="370.7" r="6.3"/>
<circle class="st0" cx="61.5" cy="354.9" r="6.3"/>
<circle class="st0" cx="77.5" cy="354.9" r="6.3"/>
<circle class="st0" cx="77.5" cy="386.6" r="6.3"/>
<circle class="st0" cx="77.5" cy="402.7" r="6.3"/>
<circle class="st0" cx="77.5" cy="418.7" r="6.3"/>
<circle class="st0" cx="61.5" cy="402.7" r="6.3"/>
<circle class="st0" cx="61.5" cy="418.7" r="6.3"/>
<circle class="st0" cx="77.5" cy="434.7" r="6.3"/>
<circle class="st0" cx="77.5" cy="450.7" r="6.3"/>
<circle class="st0" cx="61.5" cy="434.7" r="6.3"/>
<circle class="st0" cx="61.5" cy="450.7" r="6.3"/>
<circle class="st0" cx="77.5" cy="466.7" r="6.3"/>
<circle class="st0" cx="61.5" cy="466.7" r="6.3"/>
<circle class="st0" cx="61.5" cy="211.1" r="6.3"/>
<circle class="st0" cx="61.5" cy="227.1" r="6.3"/>
<circle class="st0" cx="77.5" cy="211.1" r="6.3"/>
<circle class="st0" cx="61.5" cy="195.3" r="6.3"/>
<circle class="st0" cx="77.5" cy="195.3" r="6.3"/>
<circle class="st0" cx="77.5" cy="227.1" r="6.3"/>
<circle class="st0" cx="77.5" cy="243.2" r="6.3"/>
<circle class="st0" cx="77.5" cy="259.2" r="6.3"/>
<circle class="st0" cx="61.5" cy="243.2" r="6.3"/>
<circle class="st0" cx="61.5" cy="259.2" r="6.3"/>
<circle class="st0" cx="411.8" cy="290.8" r="6.3"/>
<circle class="st0" cx="411.8" cy="306.8" r="6.3"/>
<circle class="st0" cx="427.8" cy="290.8" r="6.3"/>
<circle class="st0" cx="411.8" cy="275.1" r="6.3"/>
<circle class="st0" cx="427.8" cy="275.1" r="6.3"/>
<circle class="st0" cx="427.8" cy="306.8" r="6.3"/>
<circle class="st0" cx="427.8" cy="322.9" r="6.3"/>
<circle class="st0" cx="427.8" cy="338.9" r="6.3"/>
<circle class="st0" cx="411.8" cy="322.9" r="6.3"/>
<circle class="st0" cx="411.8" cy="338.9" r="6.3"/>
<circle class="st0" cx="411.8" cy="370.7" r="6.3"/>
<circle class="st0" cx="411.8" cy="386.6" r="6.3"/>
<circle class="st0" cx="427.8" cy="370.7" r="6.3"/>
<circle class="st0" cx="411.8" cy="354.9" r="6.3"/>
<circle class="st0" cx="427.8" cy="354.9" r="6.3"/>
<circle class="st0" cx="427.8" cy="386.6" r="6.3"/>
<circle class="st0" cx="427.8" cy="402.7" r="6.3"/>
<circle class="st0" cx="427.8" cy="418.7" r="6.3"/>
<circle class="st0" cx="411.8" cy="402.7" r="6.3"/>
<circle class="st0" cx="411.8" cy="418.7" r="6.3"/>
<circle class="st0" cx="427.8" cy="434.7" r="6.3"/>
<circle class="st0" cx="427.8" cy="450.7" r="6.3"/>
<circle class="st0" cx="411.8" cy="434.7" r="6.3"/>
<circle class="st0" cx="411.8" cy="450.7" r="6.3"/>
<circle class="st0" cx="427.8" cy="466.7" r="6.3"/>
<circle class="st0" cx="411.8" cy="466.7" r="6.3"/>
<circle class="st0" cx="411.8" cy="227.1" r="6.3"/>
<circle class="st0" cx="427.8" cy="227.1" r="6.3"/>
<circle class="st0" cx="427.8" cy="243.2" r="6.3"/>
<circle class="st0" cx="427.8" cy="259.2" r="6.3"/>
<circle class="st0" cx="411.8" cy="243.2" r="6.3"/>
<circle class="st0" cx="411.8" cy="259.2" r="6.3"/>
<circle class="st0" cx="157" cy="211.1" r="6.3"/>
<circle class="st0" cx="173" cy="211.1" r="6.3"/>
<circle class="st0" cx="157" cy="195.3" r="6.3"/>
<circle class="st0" cx="173" cy="195.3" r="6.3"/>
<circle class="st0" cx="125.2" cy="211.1" r="6.3"/>
<circle class="st0" cx="141.2" cy="211.1" r="6.3"/>
<circle class="st0" cx="125.2" cy="195.3" r="6.3"/>
<circle class="st0" cx="141.2" cy="195.3" r="6.3"/>
<circle class="st0" cx="220.7" cy="211.1" r="6.3"/>
<circle class="st0" cx="236.7" cy="211.1" r="6.3"/>
<circle class="st0" cx="220.7" cy="195.3" r="6.3"/>
<circle class="st0" cx="236.7" cy="195.3" r="6.3"/>
<circle class="st0" cx="188.9" cy="211.1" r="6.3"/>
<circle class="st0" cx="204.9" cy="211.1" r="6.3"/>
<circle class="st0" cx="188.9" cy="195.3" r="6.3"/>
<circle class="st0" cx="204.9" cy="195.3" r="6.3"/>
<circle class="st0" cx="284.4" cy="211.1" r="6.3"/>
<circle class="st0" cx="300.4" cy="211.1" r="6.3"/>
<circle class="st0" cx="284.4" cy="195.3" r="6.3"/>
<circle class="st0" cx="300.4" cy="195.3" r="6.3"/>
<circle class="st0" cx="252.6" cy="211.1" r="6.3"/>
<circle class="st0" cx="268.6" cy="211.1" r="6.3"/>
<circle class="st0" cx="252.6" cy="195.3" r="6.3"/>
<circle class="st0" cx="268.6" cy="195.3" r="6.3"/>
<circle class="st0" cx="236.8" cy="418.1" r="6.3"/>
<circle class="st0" cx="252.6" cy="418.1" r="6.3"/>
<circle class="st0" cx="316.2" cy="211.1" r="6.3"/>
<circle class="st0" cx="316.2" cy="195.3" r="6.3"/>
<circle class="st0" cx="363.9" cy="211.1" r="6.3"/>
<circle class="st0" cx="379.9" cy="211.1" r="6.3"/>
<circle class="st0" cx="363.9" cy="195.3" r="6.3"/>
<circle class="st0" cx="379.9" cy="195.3" r="6.3"/>
<circle class="st0" cx="332.1" cy="211.1" r="6.3"/>
<circle class="st0" cx="348.1" cy="211.1" r="6.3"/>
<circle class="st0" cx="332.1" cy="195.3" r="6.3"/>
<circle class="st0" cx="348.1" cy="195.3" r="6.3"/>
<circle class="st0" cx="411.9" cy="211.1" r="6.3"/>
<circle class="st0" cx="427.9" cy="211.1" r="6.3"/>
<circle class="st0" cx="411.9" cy="195.3" r="6.3"/>
<circle class="st0" cx="427.9" cy="195.3" r="6.3"/>
<circle class="st0" cx="396.1" cy="211.1" r="6.3"/>
<circle class="st0" cx="396.1" cy="195.3" r="6.3"/>
<circle class="st0" cx="93.3" cy="482.4" r="6.3"/>
<circle class="st0" cx="109.3" cy="482.4" r="6.3"/>
<circle class="st0" cx="93.3" cy="466.7" r="6.3"/>
<circle class="st0" cx="109.3" cy="466.7" r="6.3"/>
<circle class="st0" cx="61.5" cy="482.4" r="6.3"/>
<circle class="st0" cx="77.5" cy="482.4" r="6.3"/>
<circle class="st0" cx="61.5" cy="466.7" r="6.3"/>
<circle class="st0" cx="77.5" cy="466.7" r="6.3"/>
<circle class="st0" cx="157" cy="482.4" r="6.3"/>
<circle class="st0" cx="173" cy="482.4" r="6.3"/>
<circle class="st0" cx="157" cy="466.7" r="6.3"/>
<circle class="st0" cx="173" cy="466.7" r="6.3"/>
<circle class="st0" cx="125.2" cy="482.4" r="6.3"/>
<circle class="st0" cx="141.2" cy="482.4" r="6.3"/>
<circle class="st0" cx="125.2" cy="466.7" r="6.3"/>
<circle class="st0" cx="141.2" cy="466.7" r="6.3"/>
<circle class="st0" cx="109.3" cy="179.7" r="6.3"/>
<circle class="st0" cx="109.3" cy="163.9" r="6.3"/>
<circle class="st0" cx="157" cy="179.7" r="6.3"/>
<circle class="st0" cx="157" cy="163.9" r="6.3"/>
<circle class="st0" cx="125.2" cy="179.7" r="6.3"/>
<circle class="st0" cx="141.2" cy="179.7" r="6.3"/>
<circle class="st0" cx="125.2" cy="163.9" r="6.3"/>
<circle class="st0" cx="141.2" cy="163.9" r="6.3"/>
<circle class="st0" cx="332.3" cy="179.7" r="6.3"/>
<circle class="st0" cx="332.3" cy="163.9" r="6.3"/>
<circle class="st0" cx="380" cy="179.7" r="6.3"/>
<circle class="st0" cx="380" cy="163.9" r="6.3"/>
<circle class="st0" cx="348.2" cy="179.7" r="6.3"/>
<circle class="st0" cx="364.2" cy="179.7" r="6.3"/>
<circle class="st0" cx="348.2" cy="163.9" r="6.3"/>
<circle class="st0" cx="364.2" cy="163.9" r="6.3"/>
<circle class="st0" cx="332.2" cy="147.9" r="6.3"/>
<circle class="st0" cx="332.2" cy="132.1" r="6.3"/>
<circle class="st0" cx="379.9" cy="147.9" r="6.3"/>
<circle class="st0" cx="379.9" cy="132.1" r="6.3"/>
<circle class="st0" cx="348.1" cy="147.9" r="6.3"/>
<circle class="st0" cx="364.1" cy="147.9" r="6.3"/>
<circle class="st0" cx="348.1" cy="132.1" r="6.3"/>
<circle class="st0" cx="364.1" cy="132.1" r="6.3"/>
<circle class="st0" cx="109.3" cy="147.9" r="6.3"/>
<circle class="st0" cx="109.3" cy="132.1" r="6.3"/>
<circle class="st0" cx="157" cy="147.9" r="6.3"/>
<circle class="st0" cx="157" cy="132.1" r="6.3"/>
<circle class="st0" cx="125.2" cy="147.9" r="6.3"/>
<circle class="st0" cx="141.2" cy="147.9" r="6.3"/>
<circle class="st0" cx="125.2" cy="132.1" r="6.3"/>
<circle class="st0" cx="141.2" cy="132.1" r="6.3"/>
<circle class="st0" cx="220.7" cy="482.4" r="6.3"/>
<circle class="st0" cx="236.7" cy="482.4" r="6.3"/>
<circle class="st0" cx="220.7" cy="466.7" r="6.3"/>
<circle class="st0" cx="236.7" cy="466.7" r="6.3"/>
<circle class="st0" cx="188.9" cy="482.4" r="6.3"/>
<circle class="st0" cx="204.9" cy="482.4" r="6.3"/>
<circle class="st0" cx="188.9" cy="466.7" r="6.3"/>
<circle class="st0" cx="204.9" cy="466.7" r="6.3"/>
<circle class="st0" cx="284.4" cy="482.4" r="6.3"/>
<circle class="st0" cx="300.4" cy="482.4" r="6.3"/>
<circle class="st0" cx="284.4" cy="466.7" r="6.3"/>
<circle class="st0" cx="300.4" cy="466.7" r="6.3"/>
<circle class="st0" cx="252.6" cy="482.4" r="6.3"/>
<circle class="st0" cx="268.6" cy="482.4" r="6.3"/>
<circle class="st0" cx="252.6" cy="466.7" r="6.3"/>
<circle class="st0" cx="268.6" cy="466.7" r="6.3"/>
<circle class="st0" cx="316.2" cy="482.4" r="6.3"/>
<circle class="st0" cx="316.2" cy="466.7" r="6.3"/>
<circle class="st0" cx="363.9" cy="482.4" r="6.3"/>
<circle class="st0" cx="379.9" cy="482.4" r="6.3"/>
<circle class="st0" cx="363.9" cy="466.7" r="6.3"/>
<circle class="st0" cx="379.9" cy="466.7" r="6.3"/>
<circle class="st0" cx="332.1" cy="482.4" r="6.3"/>
<circle class="st0" cx="348.1" cy="482.4" r="6.3"/>
<circle class="st0" cx="332.1" cy="466.7" r="6.3"/>
<circle class="st0" cx="348.1" cy="466.7" r="6.3"/>
<circle class="st0" cx="411.9" cy="482.4" r="6.3"/>
<circle class="st0" cx="427.9" cy="482.4" r="6.3"/>
<circle class="st0" cx="411.9" cy="466.7" r="6.3"/>
<circle class="st0" cx="427.9" cy="466.7" r="6.3"/>
<circle class="st0" cx="396.1" cy="482.4" r="6.3"/>
<circle class="st0" cx="396.1" cy="466.7" r="6.3"/>
<circle class="st0" cx="332.3" cy="116.3" r="6.3"/>
<circle class="st0" cx="380" cy="116.3" r="6.3"/>
<circle class="st0" cx="348.2" cy="116.3" r="6.3"/>
<circle class="st0" cx="364.2" cy="116.3" r="6.3"/>
<circle class="st0" cx="332.2" cy="100.2" r="6.3"/>
<circle class="st0" cx="332.2" cy="84.5" r="6.3"/>
<circle class="st0" cx="379.9" cy="100.2" r="6.3"/>
<circle class="st0" cx="379.9" cy="84.5" r="6.3"/>
<circle class="st0" cx="348.1" cy="100.2" r="6.3"/>
<circle class="st0" cx="364.1" cy="100.2" r="6.3"/>
<circle class="st0" cx="348.1" cy="84.5" r="6.3"/>
<circle class="st0" cx="364.1" cy="84.5" r="6.3"/>
<circle class="st0" cx="332.3" cy="68.5" r="6.3"/>
<circle class="st0" cx="380" cy="68.5" r="6.3"/>
<circle class="st0" cx="348.2" cy="68.5" r="6.3"/>
<circle class="st0" cx="364.2" cy="68.5" r="6.3"/>
<circle class="st0" cx="332.2" cy="52.5" r="6.3"/>
<circle class="st0" cx="332.2" cy="36.7" r="6.3"/>
<circle class="st0" cx="379.9" cy="52.5" r="6.3"/>
<circle class="st0" cx="379.9" cy="36.7" r="6.3"/>
<circle class="st0" cx="348.1" cy="52.5" r="6.3"/>
<circle class="st0" cx="364.1" cy="52.5" r="6.3"/>
<circle class="st0" cx="348.1" cy="36.7" r="6.3"/>
<circle class="st0" cx="364.1" cy="36.7" r="6.3"/>
<circle class="st0" cx="300.7" cy="52.5" r="6.3"/>
<circle class="st0" cx="300.7" cy="36.7" r="6.3"/>
<circle class="st0" cx="316.6" cy="52.5" r="6.3"/>
<circle class="st0" cx="316.6" cy="36.7" r="6.3"/>
<circle class="st0" cx="236.9" cy="52.5" r="6.3"/>
<circle class="st0" cx="236.9" cy="36.7" r="6.3"/>
<circle class="st0" cx="284.6" cy="52.5" r="6.3"/>
<circle class="st0" cx="284.6" cy="36.7" r="6.3"/>
<circle class="st0" cx="252.8" cy="52.5" r="6.3"/>
<circle class="st0" cx="268.8" cy="52.5" r="6.3"/>
<circle class="st0" cx="252.8" cy="36.7" r="6.3"/>
<circle class="st0" cx="268.8" cy="36.7" r="6.3"/>
<circle class="st0" cx="205.4" cy="52.5" r="6.3"/>
<circle class="st0" cx="205.4" cy="36.7" r="6.3"/>
<circle class="st0" cx="221.3" cy="52.5" r="6.3"/>
<circle class="st0" cx="221.3" cy="36.7" r="6.3"/>
<circle class="st0" cx="332.2" cy="20.6" r="6.3"/>
<circle class="st0" cx="379.9" cy="20.6" r="6.3"/>
<circle class="st0" cx="348.1" cy="20.6" r="6.3"/>
<circle class="st0" cx="364.1" cy="20.6" r="6.3"/>
<circle class="st0" cx="300.7" cy="20.6" r="6.3"/>
<circle class="st0" cx="316.6" cy="20.6" r="6.3"/>
<circle class="st0" cx="236.9" cy="20.6" r="6.3"/>
<circle class="st0" cx="284.6" cy="20.6" r="6.3"/>
<circle class="st0" cx="252.8" cy="20.6" r="6.3"/>
<circle class="st0" cx="268.8" cy="20.6" r="6.3"/>
<circle class="st0" cx="205.4" cy="20.6" r="6.3"/>
<circle class="st0" cx="221.3" cy="20.6" r="6.3"/>
<circle class="st0" cx="140.8" cy="116.5" r="6.3"/>
<circle class="st0" cx="156.7" cy="116.5" r="6.3"/>
<circle class="st0" cx="140.7" cy="100.5" r="6.3"/>
<circle class="st0" cx="140.7" cy="84.7" r="6.3"/>
<circle class="st0" cx="156.6" cy="100.5" r="6.3"/>
<circle class="st0" cx="156.6" cy="84.7" r="6.3"/>
<circle class="st0" cx="109.3" cy="116.5" r="6.3"/>
<circle class="st0" cx="125.2" cy="116.5" r="6.3"/>
<circle class="st0" cx="109.2" cy="100.5" r="6.3"/>
<circle class="st0" cx="109.2" cy="84.7" r="6.3"/>
<circle class="st0" cx="125.1" cy="100.5" r="6.3"/>
<circle class="st0" cx="125.1" cy="84.7" r="6.3"/>
<circle class="st0" cx="140.8" cy="68.8" r="6.3"/>
<circle class="st0" cx="156.7" cy="68.8" r="6.3"/>
<circle class="st0" cx="140.7" cy="52.7" r="6.3"/>
<circle class="st0" cx="140.7" cy="37" r="6.3"/>
<circle class="st0" cx="188.4" cy="52.7" r="6.3"/>
<circle class="st0" cx="188.4" cy="37" r="6.3"/>
<circle class="st0" cx="156.6" cy="52.7" r="6.3"/>
<circle class="st0" cx="172.5" cy="52.7" r="6.3"/>
<circle class="st0" cx="156.6" cy="37" r="6.3"/>
<circle class="st0" cx="172.5" cy="37" r="6.3"/>
<circle class="st0" cx="109.3" cy="68.8" r="6.3"/>
<circle class="st0" cx="125.2" cy="68.8" r="6.3"/>
<circle class="st0" cx="109.2" cy="52.7" r="6.3"/>
<circle class="st0" cx="109.2" cy="37" r="6.3"/>
<circle class="st0" cx="125.1" cy="52.7" r="6.3"/>
<circle class="st0" cx="125.1" cy="37" r="6.3"/>
<circle class="st0" cx="140.7" cy="20.9" r="6.3"/>
<circle class="st0" cx="188.4" cy="20.9" r="6.3"/>
<circle class="st0" cx="156.6" cy="20.9" r="6.3"/>
<circle class="st0" cx="172.5" cy="20.9" r="6.3"/>
<circle class="st0" cx="109.2" cy="20.9" r="6.3"/>
<circle class="st0" cx="125.1" cy="20.9" r="6.3"/>
<circle class="st0" cx="220.8" cy="338.6" r="6.3"/>
<circle class="st0" cx="204.9" cy="338.6" r="6.3"/>
<circle class="st0" cx="284.5" cy="338.6" r="6.3"/>
<circle class="st0" cx="268.6" cy="338.6" r="6.3"/>
<circle class="st0" cx="204.9" cy="322.9" r="6.3"/>
<circle class="st0" cx="204.9" cy="307.2" r="6.3"/>
<circle class="st0" cx="284.5" cy="322.9" r="6.3"/>
<circle class="st0" cx="284.5" cy="307.2" r="6.3"/>
<circle class="st0" cx="204.9" cy="291" r="6.3"/>
<circle class="st0" cx="284.5" cy="291" r="6.3"/>
<circle class="st0" cx="220.8" cy="275" r="6.3"/>
<circle class="st0" cx="236.8" cy="275" r="6.3"/>
<circle class="st0" cx="204.9" cy="275" r="6.3"/>
<circle class="st0" cx="284.5" cy="275" r="6.3"/>
<circle class="st0" cx="252.6" cy="275" r="6.3"/>
<circle class="st0" cx="268.6" cy="275" r="6.3"/>
<circle class="st0" cx="220.8" cy="338.6" r="6.3"/>
<circle class="st0" cx="236.8" cy="338.6" r="6.3"/>
<circle class="st0" cx="252.6" cy="338.6" r="6.3"/>
<circle class="st0" cx="236.8" cy="354.3" r="6.3"/>
<circle class="st0" cx="252.6" cy="354.3" r="6.3"/>
<circle class="st0" cx="236.8" cy="370.9" r="6.3"/>
<circle class="st0" cx="252.6" cy="370.9" r="6.3"/>
<circle class="st0" cx="236.8" cy="386.6" r="6.3"/>
<circle class="st0" cx="252.6" cy="386.6" r="6.3"/>
<circle class="st0" cx="236.8" cy="402.3" r="6.3"/>
<circle class="st0" cx="252.6" cy="402.3" r="6.3"/>
<circle class="st0" cx="268.6" cy="338.6" r="6.3"/>
</svg>
